<?xml version="1.0" standalone="no"?>
<!DOCTYPE svg PUBLIC "-//W3C//DTD SVG 20010904//EN"
 "http://www.w3.org/TR/2001/REC-SVG-20010904/DTD/svg10.dtd">
<svg version="1.0" xmlns="http://www.w3.org/2000/svg"
 width="170.000000pt" height="170.000000pt" viewBox="0 0 170.000000 170.000000"
 preserveAspectRatio="xMidYMid meet">

<g transform="translate(0.000000,170.000000) scale(0.100000,-0.100000)"
fill="#000000" stroke="none">
<path d="M310 1129 c0 -33 5 -35 27 -14 18 18 13 37 -10 41 -13 2 -17 -5 -17
-27z"/>
<path d="M428 1129 c-4 -25 -1 -29 18 -29 19 0 22 5 21 27 -3 38 -34 40 -39 2z"/>
<path d="M780 1132 c0 -24 4 -29 24 -29 21 0 23 3 17 26 -11 38 -41 41 -41 3z"/>
<path d="M917 1154 c-8 -14 3 -54 14 -54 11 0 11 17 0 44 -4 11 -10 15 -14 10z"/>
<path d="M1014 1132 c1 -21 6 -27 24 -28 18 -2 22 3 22 28 0 26 -2 29 -15 18
-10 -9 -15 -9 -15 -1 0 6 -4 11 -9 11 -4 0 -8 -12 -7 -28z"/>
<path d="M1134 1131 c1 -23 6 -28 24 -28 18 0 22 5 22 29 0 26 -2 29 -15 18
-10 -9 -15 -9 -15 -1 0 6 -4 11 -9 11 -4 0 -8 -13 -7 -29z"/>
<path d="M1260 1129 c0 -23 4 -29 23 -29 12 0 18 4 12 8 -16 11 -19 45 -3 36
7 -4 9 -3 5 1 -18 21 -37 13 -37 -16z"/>
<path d="M1370 1130 c0 -30 14 -41 23 -17 4 10 6 10 6 0 1 -7 5 -13 10 -13 4
0 6 12 3 26 -3 19 -7 22 -13 12 -7 -10 -9 -9 -9 5 0 9 -4 17 -10 17 -5 0 -10
-13 -10 -30z"/>
<path d="M543 1134 c-3 -8 -1 -20 6 -27 8 -8 11 -4 11 16 0 30 -7 35 -17 11z"/>
<path d="M570 1125 c0 -15 4 -24 10 -20 6 3 10 12 10 20 0 8 -4 17 -10 20 -6
4 -10 -5 -10 -20z"/>
<path d="M663 1134 c-3 -8 -1 -20 6 -27 8 -8 11 -4 11 16 0 30 -7 35 -17 11z"/>
<path d="M691 1114 c0 -11 3 -14 6 -6 3 7 2 16 -1 19 -3 4 -6 -2 -5 -13z"/>
<path d="M200 965 c0 -50 3 -65 15 -65 8 0 19 16 25 40 6 21 15 42 20 45 6 3
10 15 10 26 0 15 -7 19 -35 19 l-35 0 0 -65z"/>
<path d="M290 866 c0 -143 -2 -166 -16 -174 -34 -19 -3 -32 76 -32 80 0 106
11 76 33 -13 10 -16 40 -18 172 l-3 160 -57 3 -58 3 0 -165z"/>
<path d="M430 1012 c0 -10 5 -23 11 -29 6 -6 14 -26 18 -45 4 -19 14 -34 24
-36 15 -3 17 6 17 62 l0 66 -35 0 c-27 0 -35 -4 -35 -18z"/>
<path d="M605 1016 c-136 -60 -120 -317 22 -352 31 -8 40 2 25 26 -15 25 -17
296 -2 305 14 9 12 35 -2 35 -7 -1 -26 -7 -43 -14z"/>
<path d="M680 1018 c0 -7 7 -22 15 -32 21 -28 21 -254 0 -282 -25 -33 -19 -47
17 -40 41 8 94 59 109 104 17 51 7 156 -17 189 -40 54 -125 95 -124 61z"/>
<path d="M854 1019 c-4 -7 0 -17 9 -24 14 -10 17 -34 17 -153 0 -120 -2 -142
-16 -150 -32 -18 -3 -32 67 -32 l69 0 -2 183 -3 182 -67 3 c-43 2 -69 -1 -74
-9z"/>
<path d="M1020 1014 c0 -8 7 -22 15 -30 12 -12 15 -43 15 -145 0 -106 -3 -131
-15 -135 -17 -7 -21 -44 -5 -44 24 0 79 30 104 56 88 95 36 281 -86 308 -22 5
-28 3 -28 -10z"/>
<path d="M1295 1016 c-136 -60 -120 -317 22 -352 31 -8 40 2 25 26 -15 25 -17
296 -2 305 14 9 12 35 -2 35 -7 -1 -26 -7 -43 -14z"/>
<path d="M1370 1018 c0 -7 7 -22 15 -32 11 -15 15 -50 15 -141 0 -91 -4 -126
-15 -141 -25 -33 -19 -47 17 -40 41 8 94 59 109 104 17 51 7 156 -17 189 -40
54 -125 95 -124 61z"/>
</g>
</svg>
